# Blender v2.81 (sub 16) OBJ File: 'skybox.blend'
# www.blender.org
mtllib skybox.mtl
o Cube.001
v 1.000000 1.000000 -1.000000
v 1.000000 -1.000000 -1.000000
v -1.000000 -1.000000 -1.000000
v -1.000000 1.000000 -1.000000
v -1.000000 -1.000000 1.000000
v -1.000000 1.000000 1.000000
v 1.000000 -1.000000 1.000000
v 0.999999 1.000000 1.000001
vt 1.000000 1.000000
vt 0.000000 0.000000
vt 1.000000 0.000000
vt 0.000000 1.000000
vt 0.000000 1.000000
vt 1.000000 0.000000
vt 1.000000 1.000000
vt 0.000000 0.000000
vt 0.000000 1.000000
vt 1.000000 0.000000
vt 1.000000 1.000000
vt 1.000000 0.000000
vt 0.000000 0.000000
vt 0.000000 1.000000
vt 0.000000 0.000000
vt 1.000000 1.000000
vn 0.0000 -0.0000 1.0000
vn 1.0000 -0.0000 0.0000
vn -1.0000 -0.0000 0.0000
vn 0.0000 0.0000 -1.0000
vn 0.0000 -1.0000 -0.0000
vn 0.0000 1.0000 0.0000
g Cube.001_Cube.001_Material2
usemtl Material2
s 1
f 1/1/1 3/2/1 2/3/1
f 1/1/1 4/4/1 3/2/1
g Cube.001_Cube.001_Material1
usemtl Material1
f 5/5/2 4/6/2 6/7/2
f 5/5/2 3/2/2 4/6/2
g Cube.001_Cube.001_Material3
usemtl Material3
f 2/8/3 7/9/3 1/10/3
f 1/10/3 7/9/3 8/11/3
g Cube.001_Cube.001_Material4
usemtl Material4
f 7/12/4 5/13/4 8/11/4
f 8/11/4 5/13/4 6/14/4
g Cube.001_Cube.001_Material5
usemtl Material5
f 1/10/5 8/11/5 4/15/5
f 4/15/5 8/11/5 6/14/5
g Cube.001_Cube.001_Material6
usemtl Material6
f 2/3/6 5/5/6 7/16/6
f 2/3/6 3/2/6 5/5/6
